<svg xmlns="http://www.w3.org/2000/svg">
  <defs>
    <symbol id="icon-trash" viewBox="0 0 20 20">
      <path
        d="M17.5 4.98333C14.725 4.70833 11.9333 4.56667 9.15 4.56667C7.5 4.56667 5.85 4.65 4.2 4.81667L2.5 4.98333"
        stroke="#F43F5E"
        stroke-width="1.5"
        stroke-linecap="round"
        stroke-linejoin="round"
      />
      <path
        d="M7.08325 4.14167L7.26659 3.05001C7.39992 2.25834 7.49992 1.66667 8.90825 1.66667H11.0916C12.4999 1.66667 12.6083 2.29167 12.7333 3.05834L12.9166 4.14167"
        stroke="#F43F5E"
        stroke-width="1.5"
        stroke-linecap="round"
        stroke-linejoin="round"
      />
      <path
        d="M15.7082 7.61667L15.1665 16.0083C15.0748 17.3167 14.9998 18.3333 12.6748 18.3333H7.32484C4.99984 18.3333 4.92484 17.3167 4.83317 16.0083L4.2915 7.61667"
        stroke="#F43F5E"
        stroke-width="1.5"
        stroke-linecap="round"
        stroke-linejoin="round"
      />
      <path
        d="M8.6084 13.75H11.3834"
        stroke="#F43F5E"
        stroke-width="1.5"
        stroke-linecap="round"
        stroke-linejoin="round"
      />
      <path
        d="M7.91675 10.4167H12.0834"
        stroke="#F43F5E"
        stroke-width="1.5"
        stroke-linecap="round"
        stroke-linejoin="round"
      />
    </symbol>
    <symbol id="icon-setting" viewBox="0 0 30 30">
      <path
        d="M11.25 27.5H18.75C25 27.5 27.5 25 27.5 18.75V11.25C27.5 5 25 2.5 18.75 2.5H11.25C5 2.5 2.5 5 2.5 11.25V18.75C2.5 25 5 27.5 11.25 27.5Z"
        stroke="#292D32"
        stroke-width="1.5"
        stroke-linecap="round"
        stroke-linejoin="round"
      />
      <path
        d="M19.4624 23.125V18.25"
        stroke="#292D32"
        stroke-width="1.5"
        stroke-miterlimit="10"
        stroke-linecap="round"
        stroke-linejoin="round"
      />
      <path
        d="M19.4624 9.3125V6.875"
        stroke="#292D32"
        stroke-width="1.5"
        stroke-miterlimit="10"
        stroke-linecap="round"
        stroke-linejoin="round"
      />
      <path
        d="M19.4624 15.8125C21.2573 15.8125 22.7124 14.3574 22.7124 12.5625C22.7124 10.7676 21.2573 9.3125 19.4624 9.3125C17.6675 9.3125 16.2124 10.7676 16.2124 12.5625C16.2124 14.3574 17.6675 15.8125 19.4624 15.8125Z"
        stroke="#292D32"
        stroke-width="1.5"
        stroke-miterlimit="10"
        stroke-linecap="round"
        stroke-linejoin="round"
      />
      <path
        d="M10.5376 23.125V20.6875"
        stroke="#292D32"
        stroke-width="1.5"
        stroke-miterlimit="10"
        stroke-linecap="round"
        stroke-linejoin="round"
      />
      <path
        d="M10.5376 11.75V6.875"
        stroke="#292D32"
        stroke-width="1.5"
        stroke-miterlimit="10"
        stroke-linecap="round"
        stroke-linejoin="round"
      />
      <path
        d="M10.5376 20.6875C12.3325 20.6875 13.7876 19.2324 13.7876 17.4375C13.7876 15.6426 12.3325 14.1875 10.5376 14.1875C8.74267 14.1875 7.2876 15.6426 7.2876 17.4375C7.2876 19.2324 8.74267 20.6875 10.5376 20.6875Z"
        stroke="#292D32"
        stroke-width="1.5"
        stroke-miterlimit="10"
        stroke-linecap="round"
        stroke-linejoin="round"
      />
    </symbol>
    <symbol id="icon-logo" viewBox="0 0 80 85">
      <path
        fill-rule="evenodd"
        clip-rule="evenodd"
        d="M11.5866 16.8032H11.5865V20.854V50.2598H11.5885C11.5872 50.3847 11.5865 50.5098 11.5865 50.635C11.5865 69.3197 26.9014 84.4667 45.7932 84.4667C64.6851 84.4667 80 69.3197 80 50.635C80 31.9503 64.6851 16.8033 45.7932 16.8033C45.6931 16.8033 45.5931 16.8037 45.4932 16.8046V16.8032H29.8901V16.8032H25.6894C25.6894 14.5966 25.3246 12.4116 24.6159 10.373C23.9071 8.3343 22.8683 6.48191 21.5588 4.92158C20.2492 3.36125 18.6945 2.12352 16.9835 1.27908C15.2725 0.434631 13.4386 0 11.5866 0L11.5866 16.8032ZM45.5683 80.1159C61.933 80.1159 75.1992 66.9504 75.1992 50.71C75.1992 34.4697 61.933 21.3042 45.5683 21.3042C29.2037 21.3042 15.9375 34.4697 15.9375 50.71C15.9375 66.9504 29.2037 80.1159 45.5683 80.1159ZM19.7528 9.5004C20.1184 9.13077 20.1152 8.53469 19.7456 8.16903C19.7105 8.13437 19.6735 8.10302 19.6347 8.07498L16.0106 4.44321C15.6434 4.07517 15.0473 4.07454 14.6792 4.44181C14.3112 4.80907 14.3106 5.40515 14.6778 5.7732L17.7479 8.84977L14.7354 11.8951C14.3697 12.2647 14.3729 12.8608 14.7426 13.2265C15.1122 13.5921 15.7083 13.5889 16.0739 13.2193L19.7528 9.5004ZM0.279351 9.49609C-0.0902856 9.13043 -0.0935104 8.53436 0.272148 8.16472L3.95098 4.44586C4.31664 4.07622 4.91272 4.073 5.28235 4.43866C5.65199 4.80431 5.65522 5.40039 5.28956 5.77003L2.277 8.81536L5.34708 11.8919C5.71434 12.26 5.71371 12.8561 5.34567 13.2233C4.97763 13.5906 4.38155 13.59 4.01429 13.2219L0.390152 9.59011C0.351444 9.56208 0.314381 9.53075 0.279351 9.49609ZM71.8723 51.8781C71.256 65.7535 59.7149 76.8152 45.568 76.8152C31.0262 76.8152 19.2378 65.1275 19.2378 50.7101C19.2378 36.2926 31.0262 24.6049 45.568 24.6049C57.4798 24.6049 67.5442 32.4474 70.7949 43.2087H59.1751C56.542 38.3779 51.469 35.1068 45.6429 35.1068C37.1084 35.1068 30.1898 42.1262 30.1898 50.785C30.1898 59.4437 37.1084 66.4631 45.6429 66.4631C51.5934 66.4631 56.7583 63.0508 59.3404 58.0497C59.5828 58.1073 59.9141 58.1367 60.3459 58.1367C65.05 58.0764 69.9966 55.8342 71.8723 51.8781ZM59.7459 45.3092H68.8978V45.3098H71.8145C71.8205 45.4256 71.8235 45.5499 71.8235 45.6832C71.8235 50.6312 67.1159 55.8168 61.0998 55.9323L61.0998 55.9341L58.9265 55.9627C58.8501 55.9659 58.7732 55.9675 58.6959 55.9675C55.713 55.9675 53.2949 53.5829 53.2949 50.6414C53.2949 47.7 55.713 45.3154 58.6959 45.3154V45.3093H59.7459V45.3092Z"
        fill="#55A3F0"
      />
    </symbol>
    <symbol id="icon-search" viewBox="0 0 24 24">
      <path
        d="M11.5 21C16.7467 21 21 16.7467 21 11.5C21 6.25329 16.7467 2 11.5 2C6.25329 2 2 6.25329 2 11.5C2 16.7467 6.25329 21 11.5 21Z"
        stroke="#282828"
        stroke-width="1.5"
        stroke-linecap="round"
        stroke-linejoin="round"
      />
      <path
        d="M22 22L20 20"
        stroke="#282828"
        stroke-width="1.5"
        stroke-linecap="round"
        stroke-linejoin="round"
      />
    </symbol>
    <symbol id="icon-edit" viewBox="0 0 20 20">
      <path
        d="M9.16675 1.66667H7.50008C3.33341 1.66667 1.66675 3.33334 1.66675 7.5V12.5C1.66675 16.6667 3.33341 18.3333 7.50008 18.3333H12.5001C16.6667 18.3333 18.3334 16.6667 18.3334 12.5V10.8333"
        stroke="#4ADE80"
        stroke-width="1.5"
        stroke-linecap="round"
        stroke-linejoin="round"
      />
      <path
        d="M13.3666 2.51666L6.7999 9.08333C6.5499 9.33333 6.2999 9.825 6.2499 10.1833L5.89157 12.6917C5.75823 13.6 6.3999 14.2333 7.30823 14.1083L9.81657 13.75C10.1666 13.7 10.6582 13.45 10.9166 13.2L17.4832 6.63333C18.6166 5.5 19.1499 4.18333 17.4832 2.51666C15.8166 0.849997 14.4999 1.38333 13.3666 2.51666Z"
        stroke="#4ADE80"
        stroke-width="1.5"
        stroke-miterlimit="10"
        stroke-linecap="round"
        stroke-linejoin="round"
      />
      <path
        d="M12.4248 3.45833C12.9831 5.45 14.5415 7.00833 16.5415 7.575"
        stroke="#4ADE80"
        stroke-width="1.5"
        stroke-miterlimit="10"
        stroke-linecap="round"
        stroke-linejoin="round"
      />
    </symbol>
    <symbol id="icon-close" viewBox="0 0 97 99">
      <path
        d="M76.5593 13.8768L45.2477 5.48684C33.0047 2.20635 22.4674 8.59535 19.0417 21.38L11.1347 50.8895C7.71873 63.6381 13.6508 74.4362 25.8937 77.7167L57.2054 86.1066C69.4483 89.3871 79.9486 82.992 83.3645 70.2434L91.2716 40.734C94.6972 27.9493 88.8023 17.1573 76.5593 13.8768Z"
        fill="#F43F5E"
        fill-opacity="0.8"
      />
      <g filter="url(#filter0_f_10_830)">
        <path
          d="M67.17 25.6971L47.4551 20.4145C39.7465 18.349 33.1119 22.3717 30.955 30.4214L25.9764 49.0015C23.8256 57.0285 27.5607 63.8273 35.2692 65.8928L54.9841 71.1754C62.6927 73.2409 69.304 69.2143 71.4548 61.1874L76.4333 42.6072C78.5902 34.5576 74.8786 27.7626 67.17 25.6971Z"
          fill="#E31352"
          fill-opacity="0.5"
        />
      </g>
      <g filter="url(#filter1_b_10_830)">
        <mask
          id="path-3-outside-1_10_830"
          maskUnits="userSpaceOnUse"
          x="0"
          y="22.0527"
          width="77"
          height="77"
          fill="black"
        >
          <rect fill="white" y="22.0527" width="77" height="77" />
          <path
            d="M54.6157 23.0527H22.1995C9.52467 23.0527 1 31.9513 1 45.187V75.7374C1 88.9357 9.52467 97.8306 22.1995 97.8306H54.6157C67.2906 97.8306 75.7778 88.9357 75.7778 75.7374V45.187C75.7778 31.9513 67.2906 23.0527 54.6157 23.0527Z"
          />
        </mask>
        <path
          d="M54.6157 23.0527H22.1995C9.52467 23.0527 1 31.9513 1 45.187V75.7374C1 88.9357 9.52467 97.8306 22.1995 97.8306H54.6157C67.2906 97.8306 75.7778 88.9357 75.7778 75.7374V45.187C75.7778 31.9513 67.2906 23.0527 54.6157 23.0527Z"
          fill="#F43F5E"
          fill-opacity="0.4"
        />
        <path
          d="M54.6157 22.0527C54.0634 22.0527 53.6157 22.5004 53.6157 23.0527C53.6157 23.605 54.0634 24.0527 54.6157 24.0527V22.0527ZM54.6157 22.0527H22.1995V24.0527H54.6157V22.0527ZM22.1995 22.0527C15.6193 22.0527 10.0484 24.3681 6.12452 28.4648C2.20423 32.5576 0 38.3524 0 45.187H2C2 38.7859 4.05811 33.5135 7.56886 29.8482C11.076 26.1866 16.1049 24.0527 22.1995 24.0527V22.0527ZM0 45.187V75.7374H2V45.187H0ZM0 75.7374C0 82.5541 2.20469 88.3386 6.12502 92.4256C10.0488 96.5162 15.6195 98.8306 22.1995 98.8306V96.8306C16.1047 96.8306 11.0756 94.6975 7.56836 91.0411C4.05765 87.3811 2 82.1191 2 75.7374H0ZM22.1995 98.8306H54.6157V96.8306H22.1995V98.8306ZM54.6157 98.8306C61.1959 98.8306 66.7577 96.5161 70.6724 92.4247C74.5833 88.3372 76.7778 82.5529 76.7778 75.7374H74.7778C74.7778 82.1203 72.7288 87.3825 69.2273 91.042C65.7296 94.6976 60.7103 96.8306 54.6157 96.8306V98.8306ZM76.7778 75.7374V45.187H74.7778V75.7374H76.7778ZM76.7778 45.187C76.7778 38.3536 74.5837 32.559 70.6729 28.4657C66.7582 24.3683 61.1961 22.0527 54.6157 22.0527V24.0527C60.7102 24.0527 65.7292 26.1865 69.2268 29.8473C72.7283 33.5122 74.7778 38.7847 74.7778 45.187H76.7778Z"
          fill="url(#paint0_linear_10_830)"
          mask="url(#path-3-outside-1_10_830)"
        />
      </g>
      <g filter="url(#filter2_bd_10_830)">
        <path
          d="M49.6415 67.0647C50.9127 68.3359 50.9127 70.3923 49.6415 71.6598C49.0059 72.2954 48.1833 72.6356 47.3234 72.6356C46.5008 72.6356 45.6783 72.3365 45.0427 71.6598L38.3874 65.0457L31.7322 71.6598C31.0966 72.2954 30.2741 72.6356 29.4141 72.6356C28.5916 72.6356 27.7316 72.2954 27.096 71.6598C25.8248 70.3923 25.8248 68.3359 27.096 67.0273L33.7512 60.4094L27.096 53.7505C25.8248 52.483 25.8248 50.3892 27.096 49.118C28.3672 47.843 30.4236 47.843 31.7322 49.118L38.3874 55.7695L45.0053 49.118C46.3139 47.843 48.3703 47.843 49.6415 49.118C50.9127 50.3892 50.9127 52.483 49.6415 53.7505L42.9863 60.4094L49.6415 67.0647Z"
          fill="url(#paint1_linear_10_830)"
        />
        <path
          d="M49.5003 71.5181L49.5001 71.5183C48.9011 72.1173 48.1291 72.4356 47.3234 72.4356C46.5506 72.4356 45.7826 72.1555 45.1884 71.5228L45.1885 71.5228L45.1836 71.5179L38.5284 64.9038L38.3874 64.7637L38.2465 64.9038L31.5912 71.5179L31.5908 71.5183C30.9918 72.1173 30.2198 72.4356 29.4141 72.4356C28.6446 72.4356 27.8355 72.1164 27.2374 71.5183L27.2372 71.5181C26.046 70.3304 26.0424 68.4002 27.2383 67.1679L33.8922 60.5513L34.0344 60.4099L33.8927 60.2681L27.2375 53.6091L27.2372 53.6088C26.0445 52.4196 26.0442 50.4526 27.2374 49.2594L27.2376 49.2592C28.4293 48.064 30.3596 48.0608 31.5917 49.2603L38.2461 55.9109L38.3878 56.0526L38.5292 55.9105L45.1448 49.2612C45.1452 49.2609 45.1456 49.2606 45.1459 49.2602C46.378 48.0608 48.3083 48.0641 49.4999 49.2592L49.5001 49.2594C50.6933 50.4526 50.693 52.4196 49.5003 53.6088L49.5 53.6091L42.8448 60.2681L42.7035 60.4095L42.8449 60.5509L49.5001 67.2061C50.6933 68.3993 50.693 70.3289 49.5003 71.5181Z"
          stroke="url(#paint2_linear_10_830)"
          stroke-width="0.4"
        />
      </g>
      <defs>
        <filter
          id="filter0_f_10_830"
          x="8.375"
          y="2.87839"
          width="85.665"
          height="85.8329"
          filterUnits="userSpaceOnUse"
          color-interpolation-filters="sRGB"
        >
          <feFlood flood-opacity="0" result="BackgroundImageFix" />
          <feBlend
            mode="normal"
            in="SourceGraphic"
            in2="BackgroundImageFix"
            result="shape"
          />
          <feGaussianBlur
            stdDeviation="8.5"
            result="effect1_foregroundBlur_10_830"
          />
        </filter>
        <filter
          id="filter1_b_10_830"
          x="-24"
          y="-1.94727"
          width="124.778"
          height="124.778"
          filterUnits="userSpaceOnUse"
          color-interpolation-filters="sRGB"
        >
          <feFlood flood-opacity="0" result="BackgroundImageFix" />
          <feGaussianBlur in="BackgroundImageFix" stdDeviation="12" />
          <feComposite
            in2="SourceAlpha"
            operator="in"
            result="effect1_backgroundBlur_10_830"
          />
          <feBlend
            mode="normal"
            in="SourceGraphic"
            in2="effect1_backgroundBlur_10_830"
            result="shape"
          />
        </filter>
        <filter
          id="filter2_bd_10_830"
          x="11.1426"
          y="33.1618"
          width="54.4521"
          height="54.4738"
          filterUnits="userSpaceOnUse"
          color-interpolation-filters="sRGB"
        >
          <feFlood flood-opacity="0" result="BackgroundImageFix" />
          <feGaussianBlur in="BackgroundImageFix" stdDeviation="7.5" />
          <feComposite
            in2="SourceAlpha"
            operator="in"
            result="effect1_backgroundBlur_10_830"
          />
          <feColorMatrix
            in="SourceAlpha"
            type="matrix"
            values="0 0 0 0 0 0 0 0 0 0 0 0 0 0 0 0 0 0 127 0"
            result="hardAlpha"
          />
          <feOffset dx="5" dy="5" />
          <feGaussianBlur stdDeviation="5" />
          <feColorMatrix
            type="matrix"
            values="0 0 0 0 1 0 0 0 0 0.321569 0 0 0 0 0.54902 0 0 0 0.5 0"
          />
          <feBlend
            mode="normal"
            in2="effect1_backgroundBlur_10_830"
            result="effect2_dropShadow_10_830"
          />
          <feBlend
            mode="normal"
            in="SourceGraphic"
            in2="effect2_dropShadow_10_830"
            result="shape"
          />
        </filter>
        <linearGradient
          id="paint0_linear_10_830"
          x1="12.9034"
          y1="31.7644"
          x2="70.6312"
          y2="93.929"
          gradientUnits="userSpaceOnUse"
        >
          <stop stop-color="white" stop-opacity="0.25" />
          <stop offset="1" stop-color="white" stop-opacity="0" />
        </linearGradient>
        <linearGradient
          id="paint1_linear_10_830"
          x1="48.8613"
          y1="52.5813"
          x2="21.6236"
          y2="53.4685"
          gradientUnits="userSpaceOnUse"
        >
          <stop stop-color="white" />
          <stop offset="1" stop-color="white" stop-opacity="0.2" />
        </linearGradient>
        <linearGradient
          id="paint2_linear_10_830"
          x1="30.035"
          y1="51.013"
          x2="45.6496"
          y2="70.3351"
          gradientUnits="userSpaceOnUse"
        >
          <stop stop-color="white" stop-opacity="0.25" />
          <stop offset="1" stop-color="white" stop-opacity="0" />
        </linearGradient>
      </defs>
    </symbol>
  </defs>
</svg>
